<mxfile host="65bd71144e">
    <diagram id="KN-bWgGzwfTGslo_XTBh" name="Page-1">
        <mxGraphModel dx="694" dy="620" grid="1" gridSize="10" guides="1" tooltips="1" connect="1" arrows="1" fold="1" page="1" pageScale="1" pageWidth="850" pageHeight="1100" math="0" shadow="0">
            <root>
                <mxCell id="0"/>
                <mxCell id="1" parent="0"/>
                <mxCell id="2" value="" style="endArrow=classic;html=1;strokeWidth=4;endFill=1;fillColor=#f8cecc;strokeColor=#b85450;" parent="1" edge="1">
                    <mxGeometry width="50" height="50" relative="1" as="geometry">
                        <mxPoint x="240" y="583.5" as="sourcePoint"/>
                        <mxPoint x="240" y="303.5" as="targetPoint"/>
                    </mxGeometry>
                </mxCell>
                <mxCell id="3" value="" style="endArrow=classic;html=1;strokeWidth=4;endFill=1;fillColor=#f8cecc;strokeColor=#b85450;" parent="1" edge="1">
                    <mxGeometry width="50" height="50" relative="1" as="geometry">
                        <mxPoint x="240" y="580" as="sourcePoint"/>
                        <mxPoint x="705" y="580" as="targetPoint"/>
                    </mxGeometry>
                </mxCell>
                <mxCell id="6" value="Efficiency" style="text;html=1;strokeColor=none;fillColor=none;align=center;verticalAlign=middle;whiteSpace=wrap;rounded=0;rotation=-90;fontStyle=1;fontSize=15;" parent="1" vertex="1">
                    <mxGeometry x="150" y="360" width="140" height="20" as="geometry"/>
                </mxCell>
                <mxCell id="8" value="Flexibility" style="text;html=1;strokeColor=none;fillColor=none;align=center;verticalAlign=middle;whiteSpace=wrap;rounded=0;rotation=0;fontStyle=1;fontSize=15;" parent="1" vertex="1">
                    <mxGeometry x="630" y="590" width="40" height="20" as="geometry"/>
                </mxCell>
                <mxCell id="20" value="Layer Acc" style="text;html=1;strokeColor=none;fillColor=none;align=center;verticalAlign=middle;whiteSpace=wrap;rounded=0;fontSize=15;" parent="1" vertex="1">
                    <mxGeometry x="442.5" y="370" width="115" height="20" as="geometry"/>
                </mxCell>
                <mxCell id="24" value="Conv. Acc" style="text;html=1;strokeColor=none;fillColor=none;align=center;verticalAlign=middle;whiteSpace=wrap;rounded=0;fontSize=15;" parent="1" vertex="1">
                    <mxGeometry x="240" y="460" width="100" height="20" as="geometry"/>
                </mxCell>
                <mxCell id="44" value="FPGA Network Acc" style="text;html=1;strokeColor=none;fillColor=none;align=center;verticalAlign=middle;whiteSpace=wrap;rounded=0;fontSize=15;" parent="1" vertex="1">
                    <mxGeometry x="320" y="425" width="145" height="20" as="geometry"/>
                </mxCell>
                <mxCell id="48" value="" style="endArrow=none;html=1;fontSize=15;strokeWidth=2;strokeColor=#CC0000;" parent="1" edge="1">
                    <mxGeometry width="50" height="50" relative="1" as="geometry">
                        <mxPoint x="275" y="455" as="sourcePoint"/>
                        <mxPoint x="285" y="445" as="targetPoint"/>
                    </mxGeometry>
                </mxCell>
                <mxCell id="49" value="" style="endArrow=none;html=1;fontSize=15;strokeWidth=2;strokeColor=#CC0000;" parent="1" edge="1">
                    <mxGeometry width="50" height="50" relative="1" as="geometry">
                        <mxPoint x="275" y="445" as="sourcePoint"/>
                        <mxPoint x="285" y="455" as="targetPoint"/>
                    </mxGeometry>
                </mxCell>
                <mxCell id="66" value="" style="endArrow=classic;html=1;strokeWidth=2;fontSize=15;startArrow=classic;startFill=1;endFill=1;endSize=1;startSize=1;" parent="1" edge="1">
                    <mxGeometry width="50" height="50" relative="1" as="geometry">
                        <mxPoint x="580" y="410" as="sourcePoint"/>
                        <mxPoint x="580" y="468" as="targetPoint"/>
                    </mxGeometry>
                </mxCell>
                <mxCell id="68" value="" style="shape=curlyBracket;whiteSpace=wrap;html=1;rounded=1;flipH=1;fontSize=15;fillColor=#000000;" parent="1" vertex="1">
                    <mxGeometry x="590" y="410" width="20" height="60" as="geometry"/>
                </mxCell>
                <mxCell id="69" value="Efficiency Gap" style="text;html=1;strokeColor=none;fillColor=none;align=center;verticalAlign=middle;whiteSpace=wrap;rounded=0;fontSize=15;" parent="1" vertex="1">
                    <mxGeometry x="615" y="425" width="90" height="20" as="geometry"/>
                </mxCell>
                <mxCell id="52" value="" style="endArrow=none;html=1;fontSize=15;strokeWidth=2;strokeColor=#CC0000;" parent="1" edge="1">
                    <mxGeometry x="495" y="405" width="50" height="50" as="geometry">
                        <mxPoint x="495" y="415" as="sourcePoint"/>
                        <mxPoint x="505" y="405" as="targetPoint"/>
                    </mxGeometry>
                </mxCell>
                <mxCell id="53" value="" style="endArrow=none;html=1;fontSize=15;strokeWidth=2;strokeColor=#CC0000;" parent="1" edge="1">
                    <mxGeometry x="495" y="405" width="50" height="50" as="geometry">
                        <mxPoint x="495" y="405" as="sourcePoint"/>
                        <mxPoint x="505" y="415" as="targetPoint"/>
                    </mxGeometry>
                </mxCell>
                <mxCell id="56" value="" style="endArrow=none;html=1;fontSize=15;strokeWidth=2;strokeColor=#CC0000;" parent="1" edge="1">
                    <mxGeometry x="575" y="475" width="50" height="50" as="geometry">
                        <mxPoint x="575" y="485" as="sourcePoint"/>
                        <mxPoint x="585" y="475" as="targetPoint"/>
                    </mxGeometry>
                </mxCell>
                <mxCell id="57" value="" style="endArrow=none;html=1;fontSize=15;strokeWidth=2;strokeColor=#CC0000;" parent="1" edge="1">
                    <mxGeometry x="575" y="475" width="50" height="50" as="geometry">
                        <mxPoint x="575" y="475" as="sourcePoint"/>
                        <mxPoint x="585" y="485" as="targetPoint"/>
                    </mxGeometry>
                </mxCell>
                <mxCell id="82" value="" style="endArrow=none;html=1;fontSize=15;strokeWidth=2;strokeColor=#CC0000;" parent="1" edge="1">
                    <mxGeometry x="387.5" y="407.5" width="50" height="50" as="geometry">
                        <mxPoint x="387.5" y="417.5" as="sourcePoint"/>
                        <mxPoint x="397.5" y="407.5" as="targetPoint"/>
                    </mxGeometry>
                </mxCell>
                <mxCell id="83" value="" style="endArrow=none;html=1;fontSize=15;strokeWidth=2;strokeColor=#CC0000;" parent="1" edge="1">
                    <mxGeometry x="387.5" y="407.5" width="50" height="50" as="geometry">
                        <mxPoint x="387.5" y="407.5" as="sourcePoint"/>
                        <mxPoint x="397.5" y="417.5" as="targetPoint"/>
                    </mxGeometry>
                </mxCell>
                <mxCell id="84" value="GEMM Acc" style="text;html=1;strokeColor=none;fillColor=none;align=center;verticalAlign=middle;whiteSpace=wrap;rounded=0;fontSize=15;" parent="1" vertex="1">
                    <mxGeometry x="510" y="490" width="145" height="20" as="geometry"/>
                </mxCell>
                <mxCell id="85" value="" style="endArrow=none;dashed=1;html=1;dashPattern=1 3;strokeWidth=2;" edge="1" parent="1">
                    <mxGeometry width="50" height="50" relative="1" as="geometry">
                        <mxPoint x="397.5" y="410" as="sourcePoint"/>
                        <mxPoint x="580" y="410" as="targetPoint"/>
                    </mxGeometry>
                </mxCell>
            </root>
        </mxGraphModel>
    </diagram>
</mxfile>